<svg xmlns="http://www.w3.org/2000/svg" width="263" height="32" viewBox="0 0 263 32" fill="none"><g clip-path="url(#clip0_543_10889)"><mask id="mask0_543_10889" style="mask-type:luminance" maskUnits="userSpaceOnUse" x="0" y="0" width="263" height="32"><path d="M262.077 0H0V31.997H262.077V0Z" fill="white"></path></mask><g mask="url(#mask0_543_10889)"><path d="M178.724 15.3102H173.893V9.27464H178.724C180.339 9.27464 181.655 10.6292 181.655 12.2924C181.655 13.9557 180.339 15.3102 178.724 15.3102ZM178.724 6.34375H170.962V25.0409H173.89V18.2381H178.721C181.954 18.2381 184.582 15.5709 184.582 12.2924C184.582 9.01391 181.954 6.34675 178.721 6.34675" fill="#00ED54"></path><path d="M196.213 8.99594C192.449 8.99594 189.389 12.0557 189.389 15.8197C189.389 19.5837 192.449 22.6434 196.213 22.6434C199.977 22.6434 203.036 19.5837 203.036 15.8197C203.036 12.0557 199.977 8.99594 196.213 8.99594ZM196.213 25.5743C190.836 25.5743 186.461 21.199 186.461 15.8227C186.461 10.4464 190.836 6.07104 196.213 6.07104C201.589 6.07104 205.964 10.4464 205.964 15.8227C205.964 21.199 201.589 25.5743 196.213 25.5743Z" fill="#00ED54"></path></g><path d="M229.594 6.34424H226.601L223.598 18.5952L219.453 6.34424H217.191L213.199 18.784L210.07 6.34424H207.289L211.76 25.0743H213.993L218.464 12.0502L222.648 25.0743H224.877L229.594 6.34424Z" fill="#00ED54"></path><path d="M244.681 6.33521H232.741V9.26309H244.681V6.33521Z" fill="#00ED54"></path><path d="M244.681 14.3218H232.741V17.2497H244.681V14.3218Z" fill="#00ED54"></path><path d="M244.681 22.3113H232.741V25.2392H244.681V22.3113Z" fill="#00ED54"></path><mask id="mask1_543_10889" style="mask-type:luminance" maskUnits="userSpaceOnUse" x="0" y="0" width="263" height="32"><path d="M262.077 0H0V31.997H262.077V0Z" fill="white"></path></mask><g mask="url(#mask1_543_10889)"><path d="M256.216 15.3109H251.385V9.2753H256.216C257.831 9.2753 259.147 10.6299 259.147 12.2931C259.147 13.9563 257.831 15.3109 256.216 15.3109ZM262.078 12.2931C262.078 9.01458 259.446 6.34741 256.216 6.34741H248.454V25.0415H251.382V18.2418H255.311L258.778 25.1434H262.057L258.377 17.8192C260.54 16.9442 262.075 14.7984 262.075 12.2931" fill="#00ED54"></path><path d="M0 16C0 7.16239 7.15939 0 15.991 0C18.2896 0 20.4772 0.485484 22.4551 1.36055L13.4048 5.93669C13.4048 5.93669 11.6606 6.8717 11.1901 7.93557C10.7706 8.88556 10.7406 9.61379 11.0792 10.5967L32.018 0.128863C32.018 0.128863 32.5124 2.77205 31.7782 4.16857C31.2148 5.24742 29.5336 6.33227 29.5336 6.33227L12.8294 14.4986C12.8294 14.4986 11.7805 15.1249 11.3789 15.7573C10.7496 16.7462 10.6567 17.6512 11.0732 18.7481L32.4375 8.66679C32.4375 8.66679 32.953 11.4658 31.991 12.7485C31.4666 13.4467 30.2019 14.091 30.2019 14.091L13.162 22.2963C13.162 22.2963 11.6576 23.1084 11.2021 24.0195C10.7136 24.9994 10.6776 25.8056 11.0762 26.8275L31.958 16.8181C31.5325 25.2751 24.5469 32 15.988 32C7.4291 32 0 24.8346 0 16Z" fill="white"></path></g><path d="M124.859 6.7998H109.378V10.6567H124.859V6.7998Z" fill="white"></path><mask id="mask2_543_10889" style="mask-type:luminance" maskUnits="userSpaceOnUse" x="0" y="0" width="263" height="32"><path d="M262.077 0H0V31.997H262.077V0Z" fill="white"></path></mask><g mask="url(#mask2_543_10889)"><path d="M147.255 6.7998H157.561C159.871 6.7998 160.132 8.63685 160.132 10.6507H144.746C144.746 8.36414 144.671 6.7998 147.255 6.7998Z" fill="white"></path></g><path d="M119.159 13.8123H114.832V25.1462H119.159V13.8123Z" fill="white"></path><path d="M144.746 13.8093V25.1493H148.456V18.3465H156.119V25.1493H159.883V13.8093H144.746Z" fill="white"></path><path d="M60.416 6.7998H64.5366V21.3374H72.3254V25.0924H60.416V6.7998Z" fill="white"></path><path d="M84.8244 13.8933H74.7461V18.0529H84.8244V13.8933Z" fill="white"></path><path d="M53.4484 13.8933H43.3701V18.0529H53.4484V13.8933Z" fill="white"></path><mask id="mask3_543_10889" style="mask-type:luminance" maskUnits="userSpaceOnUse" x="0" y="0" width="263" height="32"><path d="M262.077 0H0V31.997H262.077V0Z" fill="white"></path></mask><g mask="url(#mask3_543_10889)"><path d="M91.3486 10.654H106.533V6.79712H95.3614C92.4065 6.79712 91.3486 9.01177 91.3486 10.654Z" fill="white"></path><path d="M91.4779 19.1471V13.8127H95.4217V21.2928H105.926V25.1497H95.8443C91.1003 25.1497 91.4809 21.2898 91.4809 19.1471" fill="white"></path><path d="M139.426 6.85718H129.174C127.415 6.85718 126.627 7.39061 126.627 10.2586V25.1467H131.023V10.6481H141.86C141.86 10.6481 142.336 6.85718 139.429 6.85718" fill="white"></path><path d="M141.857 13.8127C141.857 13.8127 142.142 16.2611 140.458 17.0643C139.412 17.5648 137.476 17.331 137.476 17.331L141.722 25.1497H136.948C136.948 25.1497 134.074 20.3908 133.193 18.4818C132.007 15.9195 132.582 13.8157 135.681 13.8157H141.86L141.857 13.8127Z" fill="white"></path><path d="M74.669 21.4844H89.1136V25.3413H77.2343C74.2824 25.3413 74.669 23.1266 74.669 21.4844Z" fill="white"></path><path d="M74.669 10.8459H89.1136V6.98901H77.2343C74.2824 6.98901 74.669 9.20366 74.669 10.8459Z" fill="white"></path><path d="M43.295 21.4844H57.7396V25.3413H45.8602C42.9084 25.3413 43.295 23.1266 43.295 21.4844Z" fill="white"></path><path d="M43.295 10.8459H57.7396V6.98901H45.8602C42.9084 6.98901 43.295 9.20366 43.295 10.8459Z" fill="white"></path></g></g><defs><clipPath id="clip0_543_10889"><rect width="262.077" height="32" fill="white"></rect></clipPath></defs></svg>